<svg width="18" height="17" viewBox="0 0 18 17" fill="none" xmlns="http://www.w3.org/2000/svg">
<path d="M8.99998 13.44L4.49748 16.1783C4.3922 16.2424 4.27031 16.274 4.14713 16.269C4.02396 16.264 3.90502 16.2227 3.80526 16.1503C3.7055 16.0779 3.62938 15.9776 3.58648 15.862C3.54358 15.7464 3.53581 15.6208 3.56415 15.5008L4.77748 10.3716L0.780818 6.93581C0.687395 6.85542 0.619825 6.7492 0.586606 6.63051C0.553387 6.51182 0.556001 6.38596 0.59412 6.26875C0.632239 6.15155 0.704161 6.04823 0.800841 5.97179C0.897522 5.89534 1.01465 5.84919 1.13748 5.83914L6.38998 5.40831L8.42332 0.545805C8.47085 0.432061 8.55097 0.334915 8.65357 0.266588C8.75618 0.198261 8.87671 0.161804 8.99998 0.161804C9.12326 0.161804 9.24379 0.198261 9.3464 0.266588C9.44901 0.334915 9.52912 0.432061 9.57665 0.545805L11.61 5.40831L16.8625 5.83914C16.9853 5.84934 17.1023 5.89559 17.1988 5.97209C17.2954 6.04859 17.3672 6.15192 17.4052 6.2691C17.4432 6.38628 17.4458 6.51208 17.4125 6.6307C17.3793 6.74932 17.3117 6.85547 17.2183 6.93581L13.2225 10.3716L14.4358 15.5008C14.4642 15.6208 14.4564 15.7464 14.4135 15.862C14.3706 15.9776 14.2945 16.0779 14.1947 16.1503C14.095 16.2227 13.976 16.264 13.8528 16.269C13.7297 16.274 13.6078 16.2424 13.5025 16.1783L8.99998 13.44Z" fill="white"/>
</svg>
